<svg xmlns="http://www.w3.org/2000/svg" viewBox="0 0 300 300"><svg xmlns="http://www.w3.org/2000/svg"><g fill="none" stroke-miterlimit="10" font-family="none" font-size="none" font-weight="none" style="mix-blend-mode:normal" text-anchor="none"><path fill="#fff" d="M20.328 0H279.66c1.35.616 3.61.839 5.164 1.424 7.246 2.722 12.218 8.336 14.468 15.68.259.847.407 1.959.709 2.775v260.548c-.56 1.251-.687 2.868-1.186 4.193-2.437 6.474-7.236 11.268-13.589 13.961-1.062.47-4.205 1.172-4.61 1.419h-261.2c-.535-.303-2.31-.666-3.083-.945-6.81-2.374-12.02-6.986-14.695-13.75-.577-1.461-1.08-4.43-1.639-5.478V20.344c.213-.342 1.268-4.59 1.652-5.54 2.605-6.453 6.983-10.7 13.43-13.237C16.76.907 18.983.644 20.329 0"/><path fill="#e83229" d="M149.368 195.19c10.096.216 12.965 22.424 1.227 26.08-11.481.327-12.448-23.776-1.227-26.08M89.8 141.625c3.87-.368 7.68.459 11.004 2.49 3.208 1.96 5.228 5.667 2.76 9.126-2.172 3.045-6.11 4.367-9.633 5.017-4.352.514-8.686-.211-12.24-2.876-4.476-3.358-3.744-8.426.736-11.262 2.303-1.459 4.669-2.24 7.373-2.495m118.072 0c5.67.014 16.797 3.63 11.955 11.977-1.883 3.245-7.516 4.776-11.196 4.89-4.162-.01-7.77-.847-11.13-3.575-1.23-1.058-2.398-2.896-2.378-4.545.077-6.104 8.027-8.487 12.749-8.747m-59.238-62.682c4.516-.472 7.097 2.593 8.594 6.459a17.87 17.87 0 0 1-.442 13.707c-1.199 2.664-2.735 4.558-5.512 5.598-10.182 2.059-14.337-21.543-2.64-25.764m-41.108 22.651c2.405-.2 4.327.255 6.386 1.484 5.867 3.5 10.988 15.696.886 17.387-12.757-.182-18.71-16.66-7.272-18.87m77.102 78.138c11.87-.781 19.87 14.915 8.858 18.64-6.388 1.318-12.027-4.114-13.511-9.91-1.088-4.243.127-7.633 4.653-8.73m6.824-78.26c11.562.484 8.501 16.812-4.54 18.955-9.34 1.035-8.387-9.674-3.937-14.43 2.827-3.021 4.294-4.143 8.477-4.525m-78.6 78.254c8.876-.52 9.1 7.073 5.373 12.993-2.1 3.336-4.766 5.135-8.647 5.87-12.74.216-9.495-16.44 3.274-18.863"/><path fill="#366bb3" d="M185.192 159.408c8.508-.931 15.269 10.07 6.055 12.431-9.086 1.513-16.278-9.706-6.055-12.431m-52.712-54.847c7.667-.567 12.015 13.535 3.99 15.274-8.538.464-11.697-13.879-3.99-15.274m30.636 75.775c1.271-.102 2.368-.138 3.554.4 5.47 2.48 8.216 12.162 1.366 14.828-6.944 1.066-12.705-11.69-4.92-15.228m-28.699.002c8.922-.793 8.075 12.25-.164 15.15-.955.25-2.104.243-2.988-.175-3.626-1.72-3.695-6.975-2.124-10.099 1.277-2.54 2.668-3.955 5.276-4.877m53.906-52.177c10.566-.42 8.92 10.106-.37 12.446-1.855.363-4.028.101-5.619-.965a4.52 4.52 0 0 1-1.967-2.98c-.875-4.678 3.978-7.76 7.956-8.501m-75.413 31.245c9.187-1.02 9.658 10.725-1.313 12.617-10.046.647-9.08-10.58 1.313-12.617m53.53-54.847c7.877-.805 7.265 13.363-1.212 15.29-8.783.387-6.998-13.64 1.213-15.29M109.86 128.18c9.437-.491 14.644 10.827 4.709 12.56-8.929.704-14.873-11.222-4.71-12.56m10.28-53.447c6.12.504 10.41 13.06 3.564 14.546-6.864-.884-10.156-13.187-3.564-14.546m94.095 98.414c4.355-.406 8.813 1.242 10.908 5.264 1.24 2.378-.992 4.162-2.98 4.931-2.312.331-4.137.092-6.378-.884-2.667-1.163-6.823-5.083-4.089-8.044.69-.747 1.552-1.033 2.54-1.267m5.478-56.532c9.117-.447 6.439 9.016-3.033 10.47-9.19 1.028-6.752-9.32 3.032-10.47m-44.046 94.338c6.632-.394 11.05 11.172 5.067 14.335-2.961.246-5.25-1.994-6.477-4.447-1.589-3.177-2.345-8.036 1.41-9.888m-96.652-94.338c8.232-.236 15.107 8.934 6.066 10.481-2.439 0-4.237-.323-6.365-1.557-4.367-2.533-6.306-7.857.3-8.924m100.549-41.899c6.434.193 4.59 12.392-2.401 14.539-7.299-.072-4.105-13.223 2.401-14.54m-56.977 136.248c7.368-.555 5.05 11.665-1.345 14.335-7.266.527-5.392-11.656 1.345-14.336m-38.648-37.928c8.874-.753 5.646 9.827-3.573 10.446-9.953.01-5.341-9.682 3.573-10.446"/><path fill="#e83229" d="M130.04 127.515c4.834-.392 8.527 5.816 3.174 8.318-4.71.459-8.652-6.267-3.173-8.318m36.845 36.873c5.155-.344 8.528 6.206 3.119 8.317-4.503.514-8.503-6.203-3.12-8.318m-35.245.003c5.824-.471 5.281 6.538.047 8.293-5.325.795-5.881-6.474-.046-8.292m36.714-36.872c5.92-.362 5.61 5.693.417 8.23-5.816.943-5.778-6.55-.417-8.23m-19.143-7.969c5.52-.297 6.107 6.75 1.721 8.991-5.156.606-6.372-7.198-1.721-8.991m-.009 52.027c5.169-.42 6.372 7.026 1.72 9.012-5.274.431-6.283-6.562-1.72-9.012m-26.288-25.15c1.025-.056 1.798-.126 2.815.213 1.917.64 3.507 2.61 2.585 4.666-.585 1.304-1.79 1.923-3.085 2.403-2.29.264-4.965-.315-5.636-2.865a3.2 3.2 0 0 1 .338-2.492c.637-1.047 1.832-1.635 2.983-1.925m51.943.022c2.27-.213 4.875.177 5.647 2.724a3.2 3.2 0 0 1-.247 2.471c-.642 1.18-1.835 1.71-3.04 2.088-5.935.58-7.995-5.477-2.36-7.283"/></g></svg></svg>